# xmcd
#
# Track frame offsets:
#	150
#	14367
#	25915
#	40122
#	50380
#	61151
#	75599
#	93746
#	107678
#	120712
#	132676
#	145759
#	158581
#	170536
#	186466
#	201381
#
# Disc length: 2873 seconds
#
# Revision: 0
# Processed by: cddbd v1.5.2PL0 Copyright (c) Steve Scherf et al.
# Submitted via: audiograbber 1.83.01
#
DISCID=dd0b3710
DTITLE=Caterina Valente - Ich Wär' So Gern Bei Dir
DYEAR=1980
DGENRE=Schlager
TTITLE0=Ich Wär' So Gern Bei Dir
TTITLE1=Bravo, Caterina! (Es Gibt Noch Märchen)
TTITLE2=Spiel Noch Einmal Für Mich, Habanero
TTITLE3=Dich Werd' Ich Nie Vergessen
TTITLE4=Fiesta Cubana
TTITLE5=Musik Liegt In Der Luft
TTITLE6=Wenn Es Nacht Wird In Paris
TTITLE7=Wo Meine Sonne Scheint
TTITLE8=Ganz Paris Träumt Von Der Liebe
TTITLE9=Wir Kamen In Die Straße
TTITLE10=Das Hab' Ich Gleich Gewußt
TTITLE11=Chanson d'Amour
TTITLE12=Oha Aha
TTITLE13=Du Bist Musik
TTITLE14=Steig In Das Traumboot Der Liebe
TTITLE15=Malagueña
EXTD=
EXTT0=
EXTT1=
EXTT2=
EXTT3=
EXTT4=
EXTT5=
EXTT6=
EXTT7=
EXTT8=
EXTT9=
EXTT10=
EXTT11=
EXTT12=
EXTT13=
EXTT14=
EXTT15=
PLAYORDER=
